<?xml version="1.0" standalone="no"?>
<!DOCTYPE svg PUBLIC "-//W3C//DTD SVG 20010904//EN"
 "http://www.w3.org/TR/2001/REC-SVG-20010904/DTD/svg10.dtd">
<svg version="1.0" xmlns="http://www.w3.org/2000/svg"
 width="640.000000pt" height="640.000000pt" viewBox="0 0 640.000000 640.000000"
 preserveAspectRatio="xMidYMid meet">
<metadata>
Created by potrace 1.14, written by Peter Selinger 2001-2017
</metadata>
<g transform="translate(0.000000,640.000000) scale(0.100000,-0.100000)"
fill="#000000" stroke="none">
<path d="M759 3919 c-167 -18 -316 -86 -435 -199 -47 -44 -134 -155 -134 -170
0 -4 75 -7 168 -8 193 0 240 -5 290 -31 81 -42 122 -114 124 -214 1 -98 -49
-187 -123 -218 -16 -6 -29 -14 -29 -18 0 -3 38 -62 85 -131 46 -68 81 -127 76
-130 -15 -8 -171 -4 -180 6 -5 5 -42 59 -82 119 l-74 111 -60 -2 c-33 -1 -62
-2 -65 -3 -3 0 -4 -53 -4 -116 1 -79 -2 -115 -10 -116 -6 -1 -28 -1 -48 0 -21
1 -38 -2 -38 -7 0 -34 151 -180 236 -228 73 -41 147 -71 195 -79 18 -3 36 -8
41 -11 4 -3 48 -7 97 -10 147 -7 306 34 429 113 75 47 212 185 212 213 0 3
-18 6 -41 7 -23 1 -44 5 -47 8 -4 3 -7 70 -7 148 l0 142 -150 0 -150 0 -1
-142 c0 -79 -3 -146 -7 -149 -5 -5 -99 -8 -144 -5 -10 1 -13 82 -13 371 0 289
3 370 13 371 18 1 98 1 127 0 l25 -1 -1 -145 c-1 -127 1 -145 15 -146 23 -1
264 -1 277 0 7 1 10 49 10 146 -1 163 -10 148 81 147 39 -1 51 10 33 28 -3 3
-17 23 -32 45 -105 156 -306 278 -493 300 -95 11 -97 11 -166 4z"/>
<path d="M4095 3860 c-74 -16 -127 -63 -144 -128 -12 -45 -8 -109 8 -141 21
-38 87 -77 173 -101 102 -29 138 -52 138 -88 -1 -91 -137 -103 -248 -22 l-39
28 -32 -41 c-17 -22 -31 -44 -31 -48 0 -14 84 -66 135 -84 29 -10 78 -18 117
-18 131 1 209 68 214 183 5 102 -43 148 -204 200 -101 33 -122 48 -122 88 0
25 32 61 57 63 49 5 62 4 96 -8 21 -7 51 -22 66 -33 32 -22 36 -19 75 43 22
36 14 46 -64 81 -60 27 -140 38 -195 26z"/>
<path d="M4605 3860 c-89 -20 -146 -85 -151 -171 -5 -105 42 -155 190 -200 56
-17 109 -38 119 -47 23 -20 22 -67 -3 -92 -20 -20 -33 -23 -98 -22 -34 0 -134
45 -153 69 -9 10 -18 4 -45 -30 -19 -23 -34 -45 -34 -48 0 -12 87 -66 135 -84
92 -34 221 -19 278 33 43 38 64 113 52 184 -12 70 -70 111 -217 153 -65 18
-108 48 -108 75 0 85 119 102 220 30 31 -22 35 -19 74 43 22 36 14 46 -63 81
-61 27 -143 38 -196 26z"/>
<path d="M5195 3856 c-96 -30 -162 -86 -203 -176 -38 -80 -38 -201 0 -282 33
-70 86 -124 158 -157 44 -20 69 -25 130 -25 154 2 263 90 302 244 39 152 -39
322 -175 380 -61 27 -153 33 -212 16z m158 -120 c89 -37 138 -158 107 -265
-41 -145 -215 -189 -319 -81 -93 98 -64 283 54 344 37 20 115 21 158 2z"/>
<path d="M1837 3852 c-2 -4 -3 -146 -3 -317 l1 -310 58 -1 c65 -2 59 -16 59
128 l0 88 61 -3 61 -2 71 -105 71 -105 67 -1 c37 -1 67 1 67 3 0 3 -35 56 -77
119 -42 63 -75 115 -72 116 2 2 17 10 33 18 16 8 42 31 58 51 55 69 47 209
-15 267 -49 46 -92 55 -269 59 -92 1 -169 -1 -171 -5z m321 -121 c37 -20 52
-42 52 -77 0 -79 -41 -104 -168 -104 l-90 0 0 93 c0 50 5 95 10 98 16 10 173
2 196 -10z"/>
<path d="M2541 3633 c-102 -247 -123 -296 -151 -360 -11 -23 -16 -44 -12 -46
4 -2 31 -3 61 -3 l54 1 27 68 c15 37 30 70 33 74 6 5 126 7 242 4 28 -1 32 -6
58 -74 l28 -73 64 -1 63 -1 -48 116 c-27 65 -86 207 -132 317 l-83 200 -55 3
-55 3 -94 -228z m163 36 c2 -8 11 -31 20 -52 9 -21 25 -59 35 -85 l19 -48 -90
-1 c-80 -2 -89 0 -83 15 65 179 89 220 99 171z"/>
<path d="M3070 3540 l0 -318 153 2 c143 2 156 4 215 31 70 31 121 81 154 152
31 65 32 197 2 263 -41 88 -107 145 -200 173 -31 9 -98 14 -186 15 l-138 0 0
-318z m304 190 c38 -12 90 -63 106 -104 42 -111 -7 -239 -105 -276 -16 -7 -65
-13 -107 -14 l-78 -3 0 202 c0 111 2 204 5 207 9 8 144 0 179 -12z"/>
<path d="M3719 3846 c-4 -42 -3 -609 1 -615 4 -7 92 -8 110 -3 4 2 5 596 1
624 -2 12 -111 7 -112 -6z"/>
<path d="M5688 3842 c-2 -9 -4 -152 -3 -317 l0 -300 58 -1 57 -2 1 37 c0 20 0
114 0 209 0 94 2 172 4 172 2 0 42 -53 90 -117 47 -65 92 -125 98 -133 7 -9
37 -50 69 -91 56 -75 57 -76 102 -76 25 0 47 5 48 11 3 10 2 562 -1 608 -1 14
-10 17 -51 17 -28 -1 -52 -5 -55 -9 -3 -4 -5 -96 -5 -204 -1 -155 -4 -194 -14
-184 -6 7 -65 85 -130 173 -179 243 -159 223 -215 223 -38 1 -50 -3 -53 -16z"/>
<path d="M314 3391 c-2 -2 -4 -51 -4 -108 l0 -103 101 0 c146 0 189 26 189
116 0 39 -44 93 -77 95 -61 4 -205 4 -209 0z"/>
<path d="M1834 3079 c-3 -5 913 -9 2185 -9 1283 0 2191 4 2191 9 0 12 -4368
12 -4376 0z"/>
<path d="M2809 2939 c-56 -8 -95 -28 -131 -66 -107 -112 -57 -307 91 -351 76
-23 181 6 233 65 46 51 62 158 33 224 -39 91 -131 142 -226 128z m129 -115
c17 -21 33 -47 34 -58 6 -93 -25 -154 -90 -175 -97 -32 -187 37 -184 141 4
132 154 190 240 92z"/>
<path d="M1835 2932 c-3 -3 -5 -97 -5 -209 l0 -203 38 0 39 0 0 68 c1 119 -9
107 92 107 49 0 93 -3 97 -7 4 -4 7 -44 7 -88 l0 -80 36 0 37 0 0 205 c1 113
-3 206 -8 206 -4 1 -20 2 -35 3 l-28 1 -1 -85 -1 -85 -99 0 -99 0 1 83 c1 45
-1 82 -5 83 -29 5 -62 5 -66 1z"/>
<path d="M3482 2930 c-4 -3 -9 -17 -10 -32 -2 -27 0 -28 51 -29 28 -1 59 -2
67 -3 13 -1 15 -27 16 -161 1 -88 2 -166 3 -172 1 -8 15 -13 36 -13 29 0 35 4
36 23 1 12 1 26 -1 32 -1 8 1 251 3 283 0 9 17 12 64 10 l64 -3 -3 35 -3 35
-158 0 c-87 0 -161 -2 -165 -5z"/>
<path d="M4310 2905 c-2 -203 -2 -377 1 -380 6 -5 77 -7 202 -6 l108 1 -3 33
-3 32 -116 0 -116 0 -2 52 c-1 29 2 54 6 54 5 1 51 2 103 3 l95 1 3 33 c3 30
1 32 -30 33 -18 0 -64 1 -103 2 l-70 2 -1 53 -2 52 119 0 118 0 -1 30 c-1 17
-6 31 -12 31 -6 1 -75 2 -153 3 l-143 2 0 -31z"/>
<path d="M5171 2930 c-4 -3 -7 -95 -6 -205 l0 -200 100 -5 c55 -3 121 -3 148
-2 45 4 47 5 43 30 -2 15 -5 30 -5 33 -1 3 -48 5 -106 5 l-105 -1 -1 45 c0 25
-1 104 -1 175 l0 131 -30 -1 c-16 0 -33 -2 -37 -5z"/>
<path d="M5984 2923 c-31 -15 -74 -78 -69 -98 2 -5 6 -21 9 -35 8 -40 42 -68
104 -87 31 -9 59 -17 62 -18 58 -12 78 -57 39 -88 -31 -25 -108 -19 -151 13
l-30 22 -20 -20 c-29 -28 -17 -49 39 -74 57 -25 144 -29 188 -8 44 22 74 73
69 118 -6 51 -47 86 -133 112 -89 26 -116 52 -93 86 22 34 93 37 145 6 27 -17
29 -16 47 8 19 25 19 25 -1 42 -45 38 -150 49 -205 21z"/>
</g>
</svg>
